<?xml version="1.0" standalone="no"?>
<svg xmlns:xlink="http://www.w3.org/1999/xlink" id="wave" style="transform:rotate(180deg); transition: 0.3s" viewBox="0 0 1440 100" version="1.1" xmlns="http://www.w3.org/2000/svg"><defs><linearGradient id="sw-gradient-0" x1="0" x2="0" y1="1" y2="0"><stop stop-color="rgba(248, 249, 252, 1)" offset="0%"/><stop stop-color="rgba(248, 249, 252, 1)" offset="100%"/></linearGradient></defs><path style="transform:translate(0, 0px); opacity:1" fill="url(#sw-gradient-0)" d="M0,90L48,83.3C96,77,192,63,288,61.7C384,60,480,70,576,76.7C672,83,768,87,864,80C960,73,1056,57,1152,51.7C1248,47,1344,53,1440,61.7C1536,70,1632,80,1728,75C1824,70,1920,50,2016,41.7C2112,33,2208,37,2304,46.7C2400,57,2496,73,2592,78.3C2688,83,2784,77,2880,73.3C2976,70,3072,70,3168,65C3264,60,3360,50,3456,38.3C3552,27,3648,13,3744,21.7C3840,30,3936,60,4032,63.3C4128,67,4224,43,4320,38.3C4416,33,4512,47,4608,46.7C4704,47,4800,33,4896,28.3C4992,23,5088,27,5184,28.3C5280,30,5376,30,5472,31.7C5568,33,5664,37,5760,43.3C5856,50,5952,60,6048,60C6144,60,6240,50,6336,45C6432,40,6528,40,6624,41.7C6720,43,6816,47,6864,48.3L6912,50L6912,100L6864,100C6816,100,6720,100,6624,100C6528,100,6432,100,6336,100C6240,100,6144,100,6048,100C5952,100,5856,100,5760,100C5664,100,5568,100,5472,100C5376,100,5280,100,5184,100C5088,100,4992,100,4896,100C4800,100,4704,100,4608,100C4512,100,4416,100,4320,100C4224,100,4128,100,4032,100C3936,100,3840,100,3744,100C3648,100,3552,100,3456,100C3360,100,3264,100,3168,100C3072,100,2976,100,2880,100C2784,100,2688,100,2592,100C2496,100,2400,100,2304,100C2208,100,2112,100,2016,100C1920,100,1824,100,1728,100C1632,100,1536,100,1440,100C1344,100,1248,100,1152,100C1056,100,960,100,864,100C768,100,672,100,576,100C480,100,384,100,288,100C192,100,96,100,48,100L0,100Z"/></svg>