<?xml version="1.0" standalone="no"?>
<svg xmlns:xlink="http://www.w3.org/1999/xlink" id="wave" style="transform:rotate(0deg); transition: 0.3s" viewBox="0 0 1440 490" version="1.1" xmlns="http://www.w3.org/2000/svg"><defs><linearGradient id="sw-gradient-0" x1="0" x2="0" y1="1" y2="0"><stop stop-color="rgba(243, 106, 62, 1)" offset="0%"/><stop stop-color="rgba(255, 179, 11, 1)" offset="100%"/></linearGradient></defs><path style="transform:translate(0, 0px); opacity:1" fill="url(#sw-gradient-0)" d="M0,441L60,408.3C120,376,240,310,360,302.2C480,294,600,343,720,375.7C840,408,960,425,1080,392C1200,359,1320,278,1440,253.2C1560,229,1680,261,1800,302.2C1920,343,2040,392,2160,367.5C2280,343,2400,245,2520,204.2C2640,163,2760,180,2880,228.7C3000,278,3120,359,3240,383.8C3360,408,3480,376,3600,359.3C3720,343,3840,343,3960,318.5C4080,294,4200,245,4320,187.8C4440,131,4560,65,4680,106.2C4800,147,4920,294,5040,310.3C5160,327,5280,212,5400,187.8C5520,163,5640,229,5760,228.7C5880,229,6000,163,6120,138.8C6240,114,6360,131,6480,138.8C6600,147,6720,147,6840,155.2C6960,163,7080,180,7200,212.3C7320,245,7440,294,7560,294C7680,294,7800,245,7920,220.5C8040,196,8160,196,8280,204.2C8400,212,8520,229,8580,236.8L8640,245L8640,490L8580,490C8520,490,8400,490,8280,490C8160,490,8040,490,7920,490C7800,490,7680,490,7560,490C7440,490,7320,490,7200,490C7080,490,6960,490,6840,490C6720,490,6600,490,6480,490C6360,490,6240,490,6120,490C6000,490,5880,490,5760,490C5640,490,5520,490,5400,490C5280,490,5160,490,5040,490C4920,490,4800,490,4680,490C4560,490,4440,490,4320,490C4200,490,4080,490,3960,490C3840,490,3720,490,3600,490C3480,490,3360,490,3240,490C3120,490,3000,490,2880,490C2760,490,2640,490,2520,490C2400,490,2280,490,2160,490C2040,490,1920,490,1800,490C1680,490,1560,490,1440,490C1320,490,1200,490,1080,490C960,490,840,490,720,490C600,490,480,490,360,490C240,490,120,490,60,490L0,490Z"/></svg>