<?xml version="1.0" standalone="no"?>
<svg xmlns:xlink="http://www.w3.org/1999/xlink" id="wave" style="transform:rotate(180deg); transition: 0.3s" viewBox="0 0 1440 100" version="1.1" xmlns="http://www.w3.org/2000/svg"><defs><linearGradient id="sw-gradient-0" x1="0" x2="0" y1="1" y2="0"><stop stop-color="rgba(255, 255, 255, 1)" offset="0%"/><stop stop-color="rgba(255, 255, 255, 1)" offset="100%"/></linearGradient></defs><path style="transform:translate(0, 0px); opacity:1" fill="url(#sw-gradient-0)" d="M0,10L26.7,21.7C53.3,33,107,57,160,63.3C213.3,70,267,60,320,53.3C373.3,47,427,43,480,40C533.3,37,587,33,640,28.3C693.3,23,747,17,800,21.7C853.3,27,907,43,960,46.7C1013.3,50,1067,40,1120,35C1173.3,30,1227,30,1280,30C1333.3,30,1387,30,1440,36.7C1493.3,43,1547,57,1600,56.7C1653.3,57,1707,43,1760,41.7C1813.3,40,1867,50,1920,50C1973.3,50,2027,40,2080,31.7C2133.3,23,2187,17,2240,18.3C2293.3,20,2347,30,2400,30C2453.3,30,2507,20,2560,20C2613.3,20,2667,30,2720,30C2773.3,30,2827,20,2880,25C2933.3,30,2987,50,3040,60C3093.3,70,3147,70,3200,73.3C3253.3,77,3307,83,3360,71.7C3413.3,60,3467,30,3520,23.3C3573.3,17,3627,33,3680,45C3733.3,57,3787,63,3813,66.7L3840,70L3840,100L3813.3,100C3786.7,100,3733,100,3680,100C3626.7,100,3573,100,3520,100C3466.7,100,3413,100,3360,100C3306.7,100,3253,100,3200,100C3146.7,100,3093,100,3040,100C2986.7,100,2933,100,2880,100C2826.7,100,2773,100,2720,100C2666.7,100,2613,100,2560,100C2506.7,100,2453,100,2400,100C2346.7,100,2293,100,2240,100C2186.7,100,2133,100,2080,100C2026.7,100,1973,100,1920,100C1866.7,100,1813,100,1760,100C1706.7,100,1653,100,1600,100C1546.7,100,1493,100,1440,100C1386.7,100,1333,100,1280,100C1226.7,100,1173,100,1120,100C1066.7,100,1013,100,960,100C906.7,100,853,100,800,100C746.7,100,693,100,640,100C586.7,100,533,100,480,100C426.7,100,373,100,320,100C266.7,100,213,100,160,100C106.7,100,53,100,27,100L0,100Z"/></svg>